<?xml version="1.0" encoding="UTF-8"?>
<svg width="120px" height="120px" viewBox="0 0 120 120" version="1.1" xmlns="http://www.w3.org/2000/svg" xmlns:xlink="http://www.w3.org/1999/xlink">
    <!-- Generator: Sketch 42 (36781) - http://www.bohemiancoding.com/sketch -->
    <title>hauer-enterprises-logo</title>
    <desc>Created with Sketch.</desc>
    <defs></defs>
    <g id="Page-1" stroke="none" stroke-width="1" fill="none" fill-rule="evenodd" fill-opacity="0.5">
        <g id="hauer-enterprises-logo" fill="#00FF00">
            <path d="M0,0 L120,0 L120,120 L0,120 L0,0 Z M50.2383931,69 L44,69.0000017 C46.5424085,75.4175538 52.2448944,79.72 59.8891924,79.72 C68.4500166,79.72 74.4541864,75.2794949 75.9505651,69 L70.8176852,69 C69.2321494,72.8897619 64.4963668,74.896 60.5371924,74.896 C56.0950445,74.896 52.2899277,72.9141252 50.2383931,69 Z M76.984,59.504 C76.984,48.56 70.576,41 60.352,41 C49.696,41 43,49.136 43,59.72 C43,61.664 43,61.664 43,61.664 L76.84,61.664 C76.912,60.872 76.984,60.152 76.984,59.504 Z" id="Combined-Shape"></path>
        </g>
    </g>
</svg>